<svg width="500" height="200" viewBox="0 0 600 120" fill="none" xmlns="http://www.w3.org/2000/svg">
  <defs>
    <linearGradient id="discord-gradient" x1="0" y1="0" x2="600" y2="120" gradientUnits="userSpaceOnUse">
      <stop stop-color="#5865F2"/>
      <stop offset="1" stop-color="#23272A"/>
    </linearGradient>
    <filter id="shadow" x="0" y="0" width="600" height="120" filterUnits="userSpaceOnUse">
      <feDropShadow dx="0" dy="5" stdDeviation="6" flood-color="#191C20" flood-opacity="0.16"/>
    </filter>
  </defs>
  <rect x="10" y="10" width="580" height="100" rx="30" fill="url(#discord-gradient)" filter="url(#shadow)"/>
  
  <!-- Discord-like icon 
  <g>
    <ellipse cx="75" cy="60" rx="32" ry="32" fill="#fff" opacity="0.10"/>
    <path d="M72 80c-6-1-11-4-16-8-2-2-3-4-3-7 0-9 8-17 17-17s17 8 17 17c0 3-1 5-3 7-5 4-10 7-16 8z" fill="#fff" opacity="0.17"/>
    <path d="M68 65c0 2-2 4-4 4s-4-2-4-4 2-4 4-4 4 2 4 4zm16 0c0 2-2 4-4 4s-4-2-4-4 2-4 4-4 4 2 4 4z" fill="#fff" opacity="0.5"/>
    <path d="M60 72c3-2 8-3 15-3s12 1 15 3" stroke="#fff" stroke-width="2" opacity="0.5" stroke-linecap="round"/>
  </g>
  -->
  
  <text x="90" y="75" font-family="Segoe UI Rounded, Nunito, Arial, sans-serif"
    font-size="36" font-weight="bold" fill="#fff" letter-spacing="1"
    style="text-shadow: 0 2px 10px #23272A55;">
    Bussines Model Canvas
  </text>
  <rect x="10" y="10" width="580" height="100" rx="30" fill="none" stroke="#fff" stroke-opacity="0.10" stroke-width="2"/>
</svg>
